<?xml version="1.0" standalone="no"?>
<!DOCTYPE svg PUBLIC "-//W3C//DTD SVG 20010904//EN"
 "http://www.w3.org/TR/2001/REC-SVG-20010904/DTD/svg10.dtd">
<svg version="1.0" xmlns="http://www.w3.org/2000/svg"
 width="1320.000000pt" height="1320.000000pt" viewBox="0 0 1320.000000 1320.000000"
 preserveAspectRatio="xMidYMid meet">
<metadata>
Created by potrace 1.11, written by Peter Selinger 2001-2013
</metadata>
<g transform="translate(0.000000,1320.000000) scale(0.100000,-0.100000)"
fill="#000000" stroke="none">
<path d="M6537 13194 c-1 -1 -87 -5 -192 -8 -104 -4 -206 -8 -225 -11 -19 -2
-75 -6 -125 -10 -49 -4 -97 -9 -107 -10 -9 -2 -43 -6 -75 -10 -32 -3 -69 -7
-83 -10 -14 -2 -45 -7 -70 -10 -84 -10 -393 -65 -474 -85 -45 -10 -103 -24
-131 -30 -177 -40 -328 -84 -572 -166 -141 -47 -324 -115 -388 -144 -11 -5
-68 -29 -128 -55 -310 -132 -670 -326 -972 -524 -246 -160 -531 -377 -750
-570 -258 -227 -618 -605 -814 -856 -34 -44 -74 -95 -89 -114 -79 -100 -311
-440 -383 -562 -81 -136 -140 -242 -183 -324 -25 -50 -51 -95 -56 -102 -6 -7
-10 -14 -10 -16 0 -3 -29 -65 -64 -139 -35 -73 -76 -163 -91 -198 -15 -36 -35
-83 -45 -105 -9 -22 -32 -78 -50 -125 -18 -47 -38 -98 -45 -115 -63 -149 -226
-700 -250 -845 -3 -19 -10 -48 -15 -65 -5 -16 -12 -50 -16 -75 -4 -25 -8 -47
-9 -50 -1 -3 -5 -25 -9 -50 -5 -25 -10 -54 -12 -65 -8 -37 -13 -70 -19 -115
-3 -25 -8 -56 -10 -70 -3 -14 -7 -34 -9 -45 -2 -11 -7 -54 -11 -95 -4 -41 -9
-83 -11 -93 -2 -10 -6 -55 -10 -100 -3 -45 -8 -93 -10 -107 -22 -176 -22 -821
0 -1040 2 -19 7 -69 10 -110 3 -41 8 -86 10 -100 2 -14 7 -52 11 -85 12 -99
15 -129 20 -155 3 -14 7 -43 10 -65 3 -22 7 -47 9 -55 1 -8 6 -37 10 -65 5
-27 14 -77 22 -110 7 -33 16 -78 20 -100 3 -22 12 -65 20 -95 8 -30 17 -71 20
-90 3 -19 8 -38 11 -43 2 -4 7 -20 9 -35 24 -130 183 -618 274 -837 23 -55 47
-116 55 -135 27 -73 184 -399 243 -505 16 -27 45 -81 66 -120 113 -206 379
-614 493 -755 6 -8 62 -78 124 -155 310 -386 648 -721 1069 -1058 110 -88 417
-305 545 -384 396 -247 762 -431 1160 -583 238 -91 564 -193 775 -244 36 -8
103 -24 150 -35 47 -11 103 -23 125 -26 22 -3 46 -8 53 -10 7 -3 41 -9 75 -15
59 -10 92 -15 147 -26 14 -2 45 -7 70 -9 25 -3 56 -8 70 -10 34 -6 95 -14 150
-19 62 -6 158 -16 200 -21 211 -24 876 -24 1090 0 19 2 67 6 105 9 39 4 81 8
95 10 14 2 50 7 80 11 109 13 137 17 250 36 176 30 332 59 365 69 17 5 41 11
55 14 38 6 256 63 335 86 39 12 75 22 80 24 6 1 30 9 55 16 25 7 50 15 55 16
71 19 464 166 555 207 30 13 89 39 130 57 393 169 939 495 1303 779 45 35 98
75 116 90 179 137 496 432 721 670 56 59 239 273 305 356 44 55 82 102 85 105
4 3 48 64 100 135 160 221 316 468 456 717 34 61 195 387 227 458 8 19 27 62
42 95 36 81 126 306 130 325 2 8 10 32 19 52 38 90 170 527 202 669 2 10 6 28
9 40 2 11 6 28 9 37 3 9 7 28 10 42 2 14 12 58 20 97 9 40 18 87 21 105 3 18
10 56 15 83 5 28 12 64 14 80 3 17 7 44 10 60 3 17 8 50 11 75 3 25 8 56 10
70 8 53 16 121 20 177 3 32 7 69 10 83 2 14 7 77 11 140 4 63 8 131 10 150 4
48 4 591 -1 663 -1 32 -6 98 -10 145 -4 48 -9 105 -10 127 -3 37 -12 124 -20
200 -2 17 -6 47 -9 68 -3 20 -8 54 -11 75 -5 36 -21 136 -31 197 -2 17 -16 86
-30 155 -14 69 -28 136 -30 150 -55 282 -250 874 -393 1193 -10 23 -29 65 -41
92 -60 135 -227 457 -299 575 -11 19 -24 42 -28 50 -27 57 -235 372 -347 525
-79 108 -254 331 -307 390 -14 17 -46 53 -70 80 -164 187 -441 462 -614 610
-38 33 -74 65 -80 71 -5 6 -55 47 -110 91 -626 500 -1297 870 -2025 1116 -118
40 -317 102 -360 112 -8 2 -76 19 -150 38 -74 19 -148 37 -165 40 -16 3 -48 9
-70 15 -37 10 -280 54 -370 67 -22 3 -47 7 -55 10 -8 2 -42 6 -75 10 -33 3
-73 8 -90 10 -82 11 -224 25 -300 30 -107 7 -544 22 -548 19z"/>
</g>
</svg>
